<?xml version="1.0" encoding="utf-8"?>
<!-- Generator: Adobe Illustrator 16.0.0, SVG Export Plug-In . SVG Version: 6.00 Build 0)  -->
<!DOCTYPE svg PUBLIC "-//W3C//DTD SVG 1.1//EN" "http://www.w3.org/Graphics/SVG/1.1/DTD/svg11.dtd">
<svg version="1.1" xmlns="http://www.w3.org/2000/svg" xmlns:xlink="http://www.w3.org/1999/xlink" x="0px" y="0px"
	 width="499.803px" height="499.802px" viewBox="0 0 499.803 499.802" enable-background="new 0 0 499.803 499.802"
	 xml:space="preserve">
<g id="Layer_1" display="none">
	
		<image display="inline" overflow="visible" width="500" height="500" xlink:href="../../../CHARGEMENT/Logo_FINAL_DARK.png"  transform="matrix(0.9999 0 0 0.9999 0 -0.1353)">
	</image>
</g>
<g id="Layer_2" display="none">
	<rect x="140" y="185.535" display="inline" fill="none" stroke="#FF0000" stroke-miterlimit="10" width="80" height="186"/>
	<rect x="140" y="-33.797" display="inline" fill="none" stroke="#FF0000" stroke-miterlimit="10" width="80" height="186"/>
	<rect x="140" y="404.867" display="inline" fill="none" stroke="#FF0000" stroke-miterlimit="10" width="80" height="186"/>
	<rect x="248.944" y="185.535" display="inline" fill="none" stroke="#FF0000" stroke-miterlimit="10" width="80" height="186"/>
	<rect x="248.944" y="-33.797" display="inline" fill="none" stroke="#FF0000" stroke-miterlimit="10" width="80" height="186"/>
	<rect x="30.055" y="185.535" display="inline" fill="none" stroke="#FF0000" stroke-miterlimit="10" width="80" height="186"/>
	<rect x="359.914" y="185.535" display="inline" fill="none" stroke="#FF0000" stroke-miterlimit="10" width="80" height="186"/>
	<rect x="30.055" y="-33.797" display="inline" fill="none" stroke="#FF0000" stroke-miterlimit="10" width="80" height="186"/>
</g>
<g id="Layer_2_copy">
	
		<rect x="210.256" y="157.255" transform="matrix(0.7071 0.7071 -0.7071 0.7071 250.2554 -103.6593)" fill="#4B4B4B" width="80" height="186"/>
	
		<rect x="365.347" y="2.164" transform="matrix(0.7071 0.7071 -0.7071 0.7071 186.0158 -258.7515)" fill="#4B4B4B" width="80" height="185.999"/>
	
		<rect x="55.164" y="312.346" transform="matrix(0.7071 0.7071 -0.7071 0.7071 314.496 51.4318)" fill="#4B4B4B" width="80" height="186.001"/>
	
		<rect x="209.957" y="311.625" transform="matrix(0.7071 0.7071 -0.7071 0.7071 359.3215 -58.235)" fill="#4B4B4B" width="80" height="186"/>
	
		<rect x="365.048" y="156.533" transform="matrix(0.7071 0.7071 -0.7071 0.7071 295.0822 -213.3256)" fill="#4B4B4B" width="80" height="185.999"/>
	
		<rect x="55.178" y="156.847" transform="matrix(0.7071 0.7071 -0.7071 0.7071 204.5474 5.8782)" fill="#4B4B4B" width="80" height="185.999"/>
	
		<rect x="365.758" y="312.758" transform="matrix(0.7071 0.7071 -0.7071 0.7071 405.7575 -168.0706)" fill="#4B4B4B" width="80" height="185.999"/>
	
		<rect x="54.045" y="1.045" transform="matrix(0.7071 0.7071 -0.7071 0.7071 94.0449 -38.9547)" fill="#4B4B4B" width="80" height="185.999"/>
	
		<rect x="210.27" y="1.755" transform="matrix(0.7071 0.7071 -0.7071 0.7071 140.3041 -149.2142)" fill="#4B4B4B" width="80" height="185.999"/>
</g>
</svg>
